<?xml version="1.0" encoding="utf-8"?>
<svg xmlns="http://www.w3.org/2000/svg"
     xmlns:xlink="http://www.w3.org/1999/xlink"
     x="0"
     y="0"
     width="32"
     height="32"
     viewBox="0 0 32 32">
  <style>
    IGNORE.t:not(:target){
      display: none;
    }
    path {
      stroke-width: 1;
      stroke: #000;
      fill: none;
    }
  </style>
  <!--path id="organizeButton" class="t" 
         d="M 1.5,7.5   h 4   v .5   a 1.5,1.5 0 0,0 1.5,1.5   h 2   a 1.5,1.5 0 0,0 1.5,-1.5   v -.5   h 4
                        v 5.5   a 1.5,1.5 0 0,1 -1.5,1.5   h -10   a 1.5,1.5 0 0,1 -1.5,-1.5   v -5.5   z
                        v -.5   l 2,-5.5   h 9   l 2,5.5   v .5
                        m -10.5,-2   h 8   m -7,-2   h 6"/-->
  <!--path id="organizeButton" class="t" 
         d="M 2.5,14.5   h 8   v 1   a 3,3 0 0,0 3,3   h 4   a 3,3 0 0,0 3,-3   v -1   h 8
                        v 11   a 3,3 0 0,1 -3,3   h -20   a 3,3 0 0,1 -3,-3   v -11   z
                        v -1   l 4,-11   h 18   l 4,11   v 1
                        m -21,-4   h 16   m -14,-4   h 12"/-->
  <path id="organizeButton" class="t"
         d="M 2.5,14.5   h 8   v 1   a 3,3 0 0,0 3,3   h 4   a 3,3 0 0,0 3,-3   v -1   h 8
                        v 11   a 3,3 0 0,1 -3,3   h -20   a 3,3 0 0,1 -3,-3   v -11   z
                        v -1   l 4,-11   h 18   l 4,11   v 1
                        m -21,-4   h 16   m -14,-4   h 12"/>
</svg>