<!-- This Source Code Form is subject to the terms of the Mozilla Public
   - License, v. 2.0. If a copy of the MPL was not distributed with this
   - file, You can obtain one at http://mozilla.org/MPL/2.0/. -->
<svg xmlns="http://www.w3.org/2000/svg" width="16" height="16">
  <!--path fill="context-fill" d="M2 6a2 2 0 1 0 2 2 2 2 0 0 0-2-2zm6 0a2 2 0 1 0 2 2 2 2 0 0 0-2-2zm6 0a2 2 0 1 0 2 2 2 2 0 0 0-2-2z"/-->
  <!--path fill="context-fill" d="M7.5 1.8a.7.7 0 1 0 .7.7 .7.7 0 0 0 -.7.-7zm0 6a.7.7 0 1 0 .7.7 .7.7 0 0 0 -.7.-7zm0 6a.7.7 0 1 0 .7.7 .7.7 0 0 0 -.7.-7z"/-->
  <path fill="#333" d="M7.5 2.8a.7.7 0 1 0 1.4 1.4 a.7.7 0 0 0 -1.4-1.4z m0 5a.7.7 0 1 0 1.4 1.4 a.7.7 0 0 0 -1.4-1.4z m0 5a.7.7 0 1 0 1.4 1.4 a.7.7 0 0 0 -1.4-1.4z "/>
</svg>
